# xmcd CD database file
#
# Track frame offsets:
#	150
#	11128
#	26542
#	42015
#	58049
#	71352
#	85658
#	99585
#	112538
#	123733
#	138963
#	164854
#	180864
#	193263
#	205877
#	216830
#	232259
#	244736
#
# Disc length: 3462 seconds
#
# Revision: 0
# Processed by: cddbd v1.5.2PL0 Copyright (c) Steve Scherf et al.
# Submitted via: CDex 1.70beta2
#
DISCID=fa0d8412
DTITLE=Artie Shaw - Stardust
DYEAR=2003
DGENRE=Jazz
TTITLE0=Traffic Jam
TTITLE1=Sugar Foot Stomp
TTITLE2=Dr Livingstone I Presume
TTITLE3=Stardust
TTITLE4=The Chant
TTITLE5=Scuttlebutt
TTITLE6=Frenesi
TTITLE7=Nightmare
TTITLE8=The Japanese Sandman
TTITLE9=I Can't Get Started with you
TTITLE10=Yhe Blues
TTITLE11=Back Bay Shuffle
TTITLE12=My Heart Stood Still
TTITLE13=Yhe Skeleton in the Closet
TTITLE14=Streamline
TTITLE15=Say it with a Kiss
TTITLE16=Special Delivery Stomp
TTITLE17=When the Quail Come
EXTD=YEAR: 2003
EXTT0=
EXTT1=
EXTT2=
EXTT3=
EXTT4=
EXTT5=
EXTT6=
EXTT7=
EXTT8=
EXTT9=
EXTT10=
EXTT11=
EXTT12=
EXTT13=
EXTT14=
EXTT15=
EXTT16=
EXTT17=
PLAYORDER=
